<svg xmlns="http://www.w3.org/2000/svg" viewBox="0 0 285.16 403.5"><defs><style>.a{isolation:isolate;}.b{fill:#464e69;}.c{fill:#f64e1a;}.d{fill:#cb95ad;}.e{fill:#f7c45e;}.f,.j{fill:#fff;}.g{fill:#7ec699;}.h{fill:#f08d49;}.i{fill:#f6f7f8;}.j{opacity:0.3;mix-blend-mode:screen;}</style></defs><title>ipad-layout</title><g class="a"><rect class="b" x="12.17" y="26.5" width="264" height="324" rx="18.26" ry="18.26"/><rect class="c" x="32.17" y="71.99" width="32.89" height="10.91"/><path d="M401.55,320.07l-8.21.33c-2.75.13-5.57.19-8.37.28s-5.63.18-8.47.2L368,321a1.53,1.53,0,0,1-1.55-1.52h0v0l0-5.46c0-1.82,0-3.64,0-5.46h0a1.56,1.56,0,0,1,1.56-1.56h0l16.45.08,8.22.12,8.22.14h0a1.2,1.2,0,0,1,1.18,1.22h0C402,312.42,401.78,316.35,401.55,320.07Zm-1.33-1.33-.5-5.27c-.15-1.69-.27-3.34-.36-5l1.52,1.52c-2.74.13-5.48.18-8.22.27l-8.22.25L368,310.7l2.2-2.2c0,1.82.06,3.64,0,5.46l-.07,5.46L368,317.24l7.84.14c2.6,0,5.25.23,7.91.35s5.33.25,8.09.46Z" transform="translate(-335.83 -236.5)"/><rect class="c" x="58.14" y="106.91" width="24.24" height="10.91"/><path d="M418.86,355l-6.06.31c-2,.12-4.12.19-6.2.27l-6.3.21-6.34.07a1.51,1.51,0,0,1-1.53-1.5h0v0c0-3.64-.08-7.28,0-10.91v0a1.56,1.56,0,0,1,1.57-1.54l12.12.07,6.06.1,6.06.11h0a1.26,1.26,0,0,1,1.23,1.28h0C419.4,347.36,419.1,351.29,418.86,355Zm-1.33-1.33-.56-5.3c-.16-1.69-.35-3.33-.41-5L418.2,345l-6.06.23c-2,.06-4,.18-6.06.2l-12.12.15,2.2-2.2c0,1.82.05,3.64,0,5.46l0,5.46L394,352.14l5.68.18,5.76.37c1.94.13,3.89.25,5.93.45Z" transform="translate(-335.83 -236.5)"/><rect class="d" x="58.14" y="141.83" width="53.66" height="10.91"/><path d="M448.29,389.91l-13.39.35-13.57.28c-9.08.21-18.25.21-27.37.27a1.56,1.56,0,0,1-1.57-1.55v0c0-3.64,0-7.28,0-10.91h0a1.56,1.56,0,0,1,1.57-1.55l26.83.11,13.42.14q6.71,0,13.42.19h0a1.12,1.12,0,0,1,1.1,1.13C448.71,382.25,448.5,386.18,448.29,389.91ZM447,388.59l-.42-5.24c-.12-1.69-.21-3.35-.27-5l1.35,1.35-6.71.22-6.71.14-13.42.27c-4.47.1-8.94.08-13.42.12l-13.42.09,2.2-2.2,0,5.46c0,1.82,0,3.64,0,5.46L394,387l13,.15,6.52.1,6.57.22,13.28.47Z" transform="translate(-335.83 -236.5)"/><rect class="e" x="148.16" y="141.83" width="19.04" height="10.91"/><path d="M503.69,389.91l-4.77.3c-1.6.11-3.24.2-4.9.27l-5,.2c-1.67.07-3.36.06-5,.09a1.5,1.5,0,0,1-1.52-1.48h0v0c0-3.64-.1-7.28,0-10.91v0a1.56,1.56,0,0,1,1.57-1.53l9.52.07c3.17,0,6.35.12,9.52.18h0a1.29,1.29,0,0,1,1.28,1.32c0,2-.12,4-.26,5.9Zm-1.33-1.33-.61-5.32c-.21-1.7-.37-3.31-.43-4.93L503,380c-3.17.12-6.35.31-9.52.38l-4.76.11-4.76,0,2.22-2.22c0,1.82,0,3.64,0,5.46s0,3.64-.08,5.46L484,387.11c1.46.06,2.91.07,4.39.19l4.47.35c1.5.11,3,.25,4.63.44Z" transform="translate(-335.83 -236.5)"/><rect class="d" x="175.85" y="141.83" width="62.32" height="10.91"/><path d="M574.66,389.91l-15.55.36-15.73.29c-10.52.2-21.14.21-31.7.27a1.57,1.57,0,0,1-1.57-1.56h0V378.34h0a1.56,1.56,0,0,1,1.56-1.56h0l15.58,0,15.58.07,15.58.14c5.19,0,10.39.12,15.58.21h0a1.09,1.09,0,0,1,1.08,1.11C575.06,382.24,574.87,386.17,574.66,389.91Zm-1.33-1.33-.4-5.23c-.11-1.69-.19-3.35-.25-5l1.31,1.31c-5.19.15-10.39.32-15.58.39l-15.58.28c-5.19.12-10.39.09-15.58.14l-15.58.09,2.2-2.2,0,5.46c0,1.82,0,3.64,0,5.46L511.68,387l15.19.15c5.06.05,10.12.13,15.25.31l15.44.48Z" transform="translate(-335.83 -236.5)"/><rect class="f" x="58.14" y="229.14" width="53.66" height="10.91"/><path d="M448.29,477.22l-13.39.35-13.57.28c-9.08.21-18.25.21-27.37.27a1.56,1.56,0,0,1-1.57-1.55v0c0-3.64,0-7.28,0-10.91h0a1.56,1.56,0,0,1,1.57-1.55l26.83.11,13.42.14q6.71,0,13.42.19h0a1.12,1.12,0,0,1,1.1,1.13C448.71,469.55,448.5,473.48,448.29,477.22ZM447,475.9l-.42-5.24c-.12-1.69-.21-3.35-.27-5l1.35,1.35-6.71.22-6.71.14-13.42.27c-4.47.1-8.94.08-13.42.12l-13.42.09,2.2-2.2,0,5.46c0,1.82,0,3.64,0,5.46L394,474.35l13,.15,6.52.1,6.57.22,13.28.47Z" transform="translate(-335.83 -236.5)"/><rect class="g" x="118.73" y="229.14" width="19.04" height="10.91"/><path d="M474.26,477.22l-4.77.3c-1.6.11-3.24.2-4.9.27l-5,.2c-1.67.07-3.36.06-5,.09A1.5,1.5,0,0,1,453,476.6h0v0c0-3.64-.1-7.28,0-10.91v0a1.56,1.56,0,0,1,1.57-1.53l9.52.07c3.17,0,6.35.12,9.52.18h0a1.29,1.29,0,0,1,1.28,1.32c0,2-.12,4-.26,5.9Zm-1.33-1.33-.61-5.32c-.21-1.7-.37-3.31-.43-4.93l1.7,1.7c-3.17.12-6.35.31-9.52.38l-4.76.11-4.76,0,2.22-2.22c0,1.82,0,3.64,0,5.46s0,3.64-.08,5.46l-2.14-2.14c1.46.06,2.91.07,4.39.19l4.47.35c1.5.11,3,.25,4.63.44Z" transform="translate(-335.83 -236.5)"/><rect class="h" x="148.16" y="229.14" width="19.04" height="10.91"/><path d="M503.69,477.22l-4.77.3c-1.6.11-3.24.2-4.9.27l-5,.2c-1.67.07-3.36.06-5,.09a1.5,1.5,0,0,1-1.52-1.48h0v0c0-3.64-.1-7.28,0-10.91v0a1.56,1.56,0,0,1,1.57-1.53l9.52.07c3.17,0,6.35.12,9.52.18h0a1.29,1.29,0,0,1,1.28,1.32c0,2-.12,4-.26,5.9Zm-1.33-1.33-.61-5.32c-.21-1.7-.37-3.31-.43-4.93l1.7,1.7c-3.17.12-6.35.31-9.52.38l-4.76.11-4.76,0,2.22-2.22c0,1.82,0,3.64,0,5.46s0,3.64-.08,5.46L484,474.42c1.46.06,2.91.07,4.39.19l4.47.35c1.5.11,3,.25,4.63.44Z" transform="translate(-335.83 -236.5)"/><rect class="f" x="175.85" y="229.14" width="62.32" height="10.91"/><path d="M574.66,477.22l-15.55.36-15.73.29c-10.52.2-21.14.21-31.7.27a1.57,1.57,0,0,1-1.57-1.56h0V465.65h0a1.56,1.56,0,0,1,1.56-1.56h0l15.58,0,15.58.07,15.58.14c5.19,0,10.39.12,15.58.21h0a1.09,1.09,0,0,1,1.08,1.11C575.06,469.55,574.87,473.48,574.66,477.22Zm-1.33-1.33-.4-5.23c-.11-1.69-.19-3.35-.25-5L574,467c-5.19.15-10.39.32-15.58.39l-15.58.28c-5.19.12-10.39.09-15.58.14l-15.58.09,2.2-2.2,0,5.46c0,1.82,0,3.64,0,5.46l-2.22-2.22,15.19.15c5.06.05,10.12.13,15.25.31l15.44.48Z" transform="translate(-335.83 -236.5)"/><rect class="f" x="58.14" y="194.22" width="53.66" height="10.91"/><path d="M448.29,442.3l-13.39.35-13.57.28c-9.08.21-18.25.21-27.37.27a1.56,1.56,0,0,1-1.57-1.55v0c0-3.64,0-7.28,0-10.91h0a1.56,1.56,0,0,1,1.57-1.55l26.83.11,13.42.14q6.71,0,13.42.19h0a1.12,1.12,0,0,1,1.1,1.13C448.71,434.63,448.5,438.56,448.29,442.3ZM447,441l-.42-5.24c-.12-1.69-.21-3.35-.27-5l1.35,1.35-6.71.22-6.71.14-13.42.27c-4.47.1-8.94.08-13.42.12l-13.42.09,2.2-2.2,0,5.46c0,1.82,0,3.64,0,5.46L394,439.43l13,.15,6.52.1,6.57.22,13.28.47Z" transform="translate(-335.83 -236.5)"/><rect class="f" x="148.16" y="194.22" width="19.04" height="10.91"/><path d="M503.69,442.3l-4.77.3c-1.6.11-3.24.2-4.9.27l-5,.2c-1.67.07-3.36.06-5,.09a1.5,1.5,0,0,1-1.52-1.48h0v0c0-3.64-.1-7.28,0-10.91v0a1.56,1.56,0,0,1,1.57-1.53l9.52.07c3.17,0,6.35.12,9.52.18h0a1.29,1.29,0,0,1,1.28,1.32c0,2-.12,4-.26,5.9ZM502.36,441l-.61-5.32c-.21-1.7-.37-3.31-.43-4.93l1.7,1.7c-3.17.12-6.35.31-9.52.38l-4.76.11-4.76,0,2.22-2.22c0,1.82,0,3.64,0,5.46s0,3.64-.08,5.46L484,439.5c1.46.06,2.91.07,4.39.19l4.47.35c1.5.11,3,.25,4.63.44Z" transform="translate(-335.83 -236.5)"/><rect class="d" x="175.85" y="194.22" width="62.32" height="10.91"/><path d="M574.66,442.3l-15.55.36-15.73.29c-10.52.2-21.14.21-31.7.27a1.57,1.57,0,0,1-1.57-1.56h0V430.72h0a1.56,1.56,0,0,1,1.56-1.56h0l15.58,0,15.58.07,15.58.14c5.19,0,10.39.12,15.58.21h0a1.09,1.09,0,0,1,1.08,1.11C575.06,434.63,574.87,438.56,574.66,442.3ZM573.34,441l-.4-5.23c-.11-1.69-.19-3.35-.25-5L574,432c-5.19.15-10.39.32-15.58.39l-15.58.28c-5.19.12-10.39.09-15.58.14l-15.58.09,2.2-2.2,0,5.46c0,1.82,0,3.64,0,5.46l-2.22-2.22,15.19.15c5.06.05,10.12.13,15.25.31l15.44.48Z" transform="translate(-335.83 -236.5)"/><rect class="d" x="58.14" y="159.29" width="53.66" height="10.91"/><path d="M448.29,407.38l-13.39.35-13.57.28c-9.08.21-18.25.21-27.37.27a1.56,1.56,0,0,1-1.57-1.55v0c0-3.64,0-7.28,0-10.91h0a1.56,1.56,0,0,1,1.57-1.55l26.83.11,13.42.14q6.71,0,13.42.19h0a1.12,1.12,0,0,1,1.1,1.13C448.71,399.71,448.5,403.64,448.29,407.38ZM447,406l-.42-5.24c-.12-1.69-.21-3.35-.27-5l1.35,1.35-6.71.22-6.71.14-13.42.27c-4.47.1-8.94.08-13.42.12L394,398l2.2-2.2,0,5.46c0,1.82,0,3.64,0,5.46L394,404.51l13,.15,6.52.1,6.57.22,13.28.47Z" transform="translate(-335.83 -236.5)"/><rect class="g" x="118.73" y="159.29" width="19.04" height="10.91"/><path d="M474.26,407.38l-4.77.3c-1.6.11-3.24.2-4.9.27l-5,.2c-1.67.07-3.36.06-5,.09a1.5,1.5,0,0,1-1.52-1.48h0v0c0-3.64-.1-7.28,0-10.91v0a1.56,1.56,0,0,1,1.57-1.53l9.52.07c3.17,0,6.35.12,9.52.18h0a1.29,1.29,0,0,1,1.28,1.32c0,2-.12,4-.26,5.9ZM472.93,406l-.61-5.32c-.21-1.7-.37-3.31-.43-4.93l1.7,1.7c-3.17.12-6.35.31-9.52.38l-4.76.11-4.76,0,2.22-2.22c0,1.82,0,3.64,0,5.46s0,3.64-.08,5.46l-2.14-2.14c1.46.06,2.91.07,4.39.19l4.47.35c1.5.11,3,.25,4.63.44Z" transform="translate(-335.83 -236.5)"/><rect class="f" x="58.14" y="211.68" width="53.66" height="10.91"/><path d="M448.29,459.76l-13.39.35-13.57.28c-9.08.21-18.25.21-27.37.27a1.56,1.56,0,0,1-1.57-1.55v0c0-3.64,0-7.28,0-10.91h0a1.56,1.56,0,0,1,1.57-1.55l26.83.11,13.42.14q6.71,0,13.42.19h0a1.12,1.12,0,0,1,1.1,1.13C448.71,452.09,448.5,456,448.29,459.76ZM447,458.43l-.42-5.24c-.12-1.69-.21-3.35-.27-5l1.35,1.35-6.71.22-6.71.14-13.42.27c-4.47.1-8.94.08-13.42.12l-13.42.09,2.2-2.2,0,5.46c0,1.82,0,3.64,0,5.46L394,456.89l13,.15,6.52.1,6.57.22,13.28.47Z" transform="translate(-335.83 -236.5)"/><rect class="f" x="148.16" y="211.68" width="19.04" height="10.91"/><path d="M503.69,459.76l-4.77.3c-1.6.11-3.24.2-4.9.27l-5,.2c-1.67.07-3.36.06-5,.09a1.5,1.5,0,0,1-1.52-1.48h0v0c0-3.64-.1-7.28,0-10.91v0a1.56,1.56,0,0,1,1.57-1.53l9.52.07c3.17,0,6.35.12,9.52.18h0a1.29,1.29,0,0,1,1.28,1.32c0,2-.12,4-.26,5.9Zm-1.33-1.33-.61-5.32c-.21-1.7-.37-3.31-.43-4.93l1.7,1.7c-3.17.12-6.35.31-9.52.38l-4.76.11-4.76,0,2.22-2.22c0,1.82,0,3.64,0,5.46s0,3.64-.08,5.46L484,457c1.46.06,2.91.07,4.39.19l4.47.35c1.5.11,3,.25,4.63.44Z" transform="translate(-335.83 -236.5)"/><rect class="g" x="118.73" y="264.06" width="19.04" height="10.91"/><path d="M474.26,512.15l-4.77.3c-1.6.11-3.24.2-4.9.27l-5,.2c-1.67.07-3.36.06-5,.09a1.5,1.5,0,0,1-1.52-1.48h0v0c0-3.64-.1-7.28,0-10.91v0a1.56,1.56,0,0,1,1.57-1.53l9.52.07c3.17,0,6.35.12,9.52.18h0a1.29,1.29,0,0,1,1.28,1.32c0,2-.12,4-.26,5.9Zm-1.33-1.33-.61-5.32c-.21-1.7-.37-3.31-.43-4.93l1.7,1.7c-3.17.12-6.35.31-9.52.38l-4.76.11-4.76,0,2.22-2.22c0,1.82,0,3.64,0,5.46s0,3.64-.08,5.46l-2.14-2.14c1.46.06,2.91.07,4.39.19l4.47.35c1.5.11,3,.25,4.63.44Z" transform="translate(-335.83 -236.5)"/><rect class="h" x="148.16" y="264.06" width="19.04" height="10.91"/><path d="M503.69,512.15l-4.77.3c-1.6.11-3.24.2-4.9.27l-5,.2c-1.67.07-3.36.06-5,.09a1.5,1.5,0,0,1-1.52-1.48h0v0c0-3.64-.1-7.28,0-10.91v0A1.56,1.56,0,0,1,484,499l9.52.07c3.17,0,6.35.12,9.52.18h0a1.29,1.29,0,0,1,1.28,1.32c0,2-.12,4-.26,5.9Zm-1.33-1.33-.61-5.32c-.21-1.7-.37-3.31-.43-4.93l1.7,1.7c-3.17.12-6.35.31-9.52.38l-4.76.11-4.76,0,2.22-2.22c0,1.82,0,3.64,0,5.46s0,3.64-.08,5.46L484,509.34c1.46.06,2.91.07,4.39.19l4.47.35c1.5.11,3,.25,4.63.44Z" transform="translate(-335.83 -236.5)"/><rect class="f" x="58.14" y="246.6" width="53.66" height="10.91"/><path d="M448.29,494.68l-13.39.35-13.57.28c-9.08.21-18.25.21-27.37.27A1.56,1.56,0,0,1,392.4,494v0c0-3.64,0-7.28,0-10.91h0a1.56,1.56,0,0,1,1.57-1.55l26.83.11,13.42.14q6.71,0,13.42.19h0a1.12,1.12,0,0,1,1.1,1.13C448.71,487,448.5,490.95,448.29,494.68ZM447,493.36l-.42-5.24c-.12-1.69-.21-3.35-.27-5l1.35,1.35-6.71.22-6.71.14-13.42.27c-4.47.1-8.94.08-13.42.12l-13.42.09,2.2-2.2,0,5.46c0,1.82,0,3.64,0,5.46L394,491.81l13,.15,6.52.1,6.57.22,13.28.47Z" transform="translate(-335.83 -236.5)"/><rect class="f" x="148.16" y="246.6" width="19.04" height="10.91"/><path d="M503.69,494.68l-4.77.3c-1.6.11-3.24.2-4.9.27l-5,.2c-1.67.07-3.36.06-5,.09a1.5,1.5,0,0,1-1.52-1.48h0v0c0-3.64-.1-7.28,0-10.91v0a1.56,1.56,0,0,1,1.57-1.53l9.52.07c3.17,0,6.35.12,9.52.18h0a1.29,1.29,0,0,1,1.28,1.32c0,2-.12,4-.26,5.9Zm-1.33-1.33-.61-5.32c-.21-1.7-.37-3.31-.43-4.93l1.7,1.7c-3.17.12-6.35.31-9.52.38l-4.76.11-4.76,0,2.22-2.22c0,1.82,0,3.64,0,5.46s0,3.64-.08,5.46L484,491.88c1.46.06,2.91.07,4.39.19l4.47.35c1.5.11,3,.25,4.63.44Z" transform="translate(-335.83 -236.5)"/><rect class="d" x="58.14" y="176.76" width="53.66" height="10.91"/><path d="M448.29,424.84l-13.39.35-13.57.28c-9.08.21-18.25.21-27.37.27a1.56,1.56,0,0,1-1.57-1.55v0c0-3.64,0-7.28,0-10.91h0a1.56,1.56,0,0,1,1.57-1.55l26.83.11,13.42.14q6.71,0,13.42.19h0a1.12,1.12,0,0,1,1.1,1.13C448.71,417.17,448.5,421.1,448.29,424.84ZM447,423.51l-.42-5.24c-.12-1.69-.21-3.35-.27-5l1.35,1.35-6.71.22-6.71.14-13.42.27c-4.47.1-8.94.08-13.42.12l-13.42.09,2.2-2.2,0,5.46c0,1.82,0,3.64,0,5.46L394,422l13,.15,6.52.1,6.57.22,13.28.47Z" transform="translate(-335.83 -236.5)"/><rect class="g" x="118.73" y="176.76" width="19.04" height="10.91"/><path d="M474.26,424.84l-4.77.3c-1.6.11-3.24.2-4.9.27l-5,.2c-1.67.07-3.36.06-5,.09a1.5,1.5,0,0,1-1.52-1.48h0v0c0-3.64-.1-7.28,0-10.91v0a1.56,1.56,0,0,1,1.57-1.53l9.52.07c3.17,0,6.35.12,9.52.18h0a1.29,1.29,0,0,1,1.28,1.32c0,2-.12,4-.26,5.9Zm-1.33-1.33-.61-5.32c-.21-1.7-.37-3.31-.43-4.93l1.7,1.7c-3.17.12-6.35.31-9.52.38l-4.76.11-4.76,0,2.22-2.22c0,1.82,0,3.64,0,5.46s0,3.64-.08,5.46L454.55,422c1.46.06,2.91.07,4.39.19l4.47.35c1.5.11,3,.25,4.63.44Z" transform="translate(-335.83 -236.5)"/><rect class="e" x="148.16" y="176.76" width="19.04" height="10.91"/><path d="M503.69,424.84l-4.77.3c-1.6.11-3.24.2-4.9.27l-5,.2c-1.67.07-3.36.06-5,.09a1.5,1.5,0,0,1-1.52-1.48h0v0c0-3.64-.1-7.28,0-10.91v0a1.56,1.56,0,0,1,1.57-1.53l9.52.07c3.17,0,6.35.12,9.52.18h0a1.29,1.29,0,0,1,1.28,1.32c0,2-.12,4-.26,5.9Zm-1.33-1.33-.61-5.32c-.21-1.7-.37-3.31-.43-4.93L503,415c-3.17.12-6.35.31-9.52.38l-4.76.11-4.76,0,2.22-2.22c0,1.82,0,3.64,0,5.46s0,3.64-.08,5.46L484,422c1.46.06,2.91.07,4.39.19l4.47.35c1.5.11,3,.25,4.63.44Z" transform="translate(-335.83 -236.5)"/><rect class="e" x="87.57" y="106.91" width="24.24" height="10.91"/><path d="M448.29,355l-6.06.31c-2,.12-4.12.19-6.2.27l-6.3.21-6.34.07a1.51,1.51,0,0,1-1.53-1.5h0v0c0-3.64-.08-7.28,0-10.91v0a1.56,1.56,0,0,1,1.57-1.54l12.12.07,6.06.1,6.06.11h0a1.26,1.26,0,0,1,1.23,1.28h0C448.83,347.36,448.53,351.29,448.29,355ZM447,353.66l-.56-5.3c-.16-1.69-.35-3.33-.41-5l1.63,1.63-6.06.23c-2,.06-4,.18-6.06.2l-12.12.15,2.2-2.2c0,1.82.05,3.64,0,5.46l0,5.46-2.18-2.18,5.68.18,5.76.37c1.94.13,3.89.25,5.93.45Z" transform="translate(-335.83 -236.5)"/><rect class="c" x="58.14" y="296.8" width="24.24" height="10.91"/><path d="M418.86,544.89l-6.06.31c-2,.12-4.12.19-6.2.27l-6.3.21-6.34.07a1.51,1.51,0,0,1-1.53-1.5h0v0c0-3.64-.08-7.28,0-10.91v0a1.56,1.56,0,0,1,1.57-1.54l12.12.07,6.06.1,6.06.11h0a1.26,1.26,0,0,1,1.23,1.28h0C419.4,537.26,419.1,541.19,418.86,544.89Zm-1.33-1.33-.56-5.3c-.16-1.69-.35-3.33-.41-5l1.63,1.63-6.06.23c-2,.06-4,.18-6.06.2l-12.12.15,2.2-2.2c0,1.82.05,3.64,0,5.46l0,5.46L394,542l5.68.18,5.76.37c1.94.13,3.89.25,5.93.45Z" transform="translate(-335.83 -236.5)"/><rect class="f" x="87.57" y="296.8" width="107.33" height="10.91"/><path d="M531.39,544.89l-26.79.38-27,.23-54.19.32a1.58,1.58,0,0,1-1.59-1.57v0l0-10.91h0a1.54,1.54,0,0,1,1.55-1.54l53.66.18,26.83.09,26.83.23h0a1,1,0,0,1,1,1C531.74,537.2,531.57,541.13,531.39,544.89Zm-1.33-1.33c-.21-3.54-.43-6.89-.49-10.25l1.15,1.15c-8.94.16-17.89.39-26.83.49l-26.83.3c-8.94.13-17.89.13-26.83.17l-26.83.1,2.2-2.2,0,10.91L423.4,542l26.43.15c8.82.09,17.61.09,26.49.29l26.69.49Z" transform="translate(-335.83 -236.5)"/><rect class="f" x="117" y="106.91" width="46.74" height="10.91"/><path d="M500.23,355l-11.66.35-11.84.28c-4,.09-7.94.17-11.94.19l-12,.08a1.55,1.55,0,0,1-1.56-1.54v0q0-5.46,0-10.91v0a1.56,1.56,0,0,1,1.57-1.55l23.37.1c7.79.11,15.58.13,23.37.31h0a1.14,1.14,0,0,1,1.11,1.16C500.66,347.33,500.44,351.26,500.23,355Zm-1.33-1.33-.44-5.25c-.13-1.69-.23-3.35-.29-5l1.4,1.4c-3.89.17-7.79.26-11.68.34l-11.68.27c-3.89.08-7.79.07-11.68.11l-11.68.09,2.2-2.2,0,5.46,0,5.46-2.2-2.2,11.29.14,5.66.11,5.71.22c3.82.16,7.64.28,11.55.47Z" transform="translate(-335.83 -236.5)"/><rect class="f" x="71.99" y="71.99" width="166.18" height="10.91"/><path d="M574.66,320.07l-41.5.38-41.73.23-41.79.19-41.83.11a1.57,1.57,0,0,1-1.57-1.57h0l0-10.91h0a1.55,1.55,0,0,1,1.55-1.54l83.09.19,41.55.09,41.55.26h0a1,1,0,0,1,1,1C575,312.37,574.84,316.3,574.66,320.07Zm-1.33-1.33c-.2-3.52-.38-6.87-.42-10.25l1.08,1.08-41.55.53-41.55.31c-13.85.13-27.7.15-41.55.18l-41.55.1,2.2-2.2,0,10.91-2.23-2.23c13.72,0,27.43.08,41.15.13s27.42.1,41.19.28l41.4.5Z" transform="translate(-335.83 -236.5)"/><path class="i" d="M593,240l-229-.36c-13.83,0-25.06,12.38-25.08,27.71l-.53,341.38c0,15.32,11.18,27.76,25,27.79l229,.36c13.83,0,25.06-12.38,25.08-27.71L618,267.79C618,252.46,606.82,240,593,240Zm15.64,337.62L346,577.21,346.51,287l262.6.41Z" transform="translate(-335.83 -236.5)"/><path d="M493.57,608a16.65,16.65,0,0,1-4.82,11.76,17,17,0,0,1-23.86.3,16.56,16.56,0,0,1,.05-24.18,16.92,16.92,0,0,1,23.84.35A16.65,16.65,0,0,1,493.57,608Zm-3.2,0a13.37,13.37,0,0,0-4-9.41,13.16,13.16,0,0,0-9.4-3.71,13,13,0,0,0-9.1,4,13.45,13.45,0,0,0,0,18.16,13,13,0,0,0,9.07,4,13.16,13.16,0,0,0,9.41-3.68A13.37,13.37,0,0,0,490.38,608Z" transform="translate(-335.83 -236.5)"/><path d="M483.82,262.65A6.45,6.45,0,0,1,482,267.1a6.6,6.6,0,0,1-9.23.32,6.28,6.28,0,0,1,0-9.56,6.59,6.59,0,0,1,9.22.34A6.45,6.45,0,0,1,483.82,262.65Zm-3.2,0a2.83,2.83,0,0,0-.93-2.09,2.7,2.7,0,0,0-2.09-.67,2.81,2.81,0,0,0,0,5.51,2.69,2.69,0,0,0,2.09-.66A2.83,2.83,0,0,0,480.63,262.65Z" transform="translate(-335.83 -236.5)"/><path d="M609.44,578.54l-16.08.32-16.19.24-16.25.21-16.35.11c-21.78.19-43.74.14-65.65.13s-43.85-.12-65.75-.27l-65.62-.47h0a1.59,1.59,0,0,1-1.58-1.6h0c.19-24.18.38-48.37.24-72.55,0-12.09-.15-24.18-.27-36.28l-.36-36.28c-.11-12.09-.1-24.18-.15-36.28,0-6,0-12.09.07-18.14l.14-18.14.28-36.28.38-36.28v0a1.78,1.78,0,0,1,1.8-1.77c21.75.14,43.49.43,65.24.3s43.5-.2,65.24,0l130.48.57h0a1.35,1.35,0,0,1,1.35,1.36l-.16,36.39c0,3,0,6.06,0,9.1,0,1.52.13,3,.27,4.59l.39,4.61c.19,3.07.07,6.09.07,9.13l-.07,9.11c-.18,24.31-.88,48.4-.89,72.68-.08,6,0,12.16,0,18.25l0,9.14.14,9.2.25,18.41c.08,6.14.16,12.29.14,18.38v9.16c0,3.05,0,6.12-.06,9.11-.06,6.06-.31,12-.56,17.85C609.49,554.28,609.23,566.16,609.44,578.54Zm-1.82-1.83c-.78-24.9-1.14-49.1-.85-72.93.07-12,.35-23.82.51-35.77l.15-9,.07-9c0-6,.14-12,.09-18,.07-24.1-.54-48.38-.63-72.43l0-9c0-3-.1-6,.1-9l.41-4.46c.14-1.49.27-3,.29-4.48,0-3,0-6,0-9l0-36.16,1.35,1.36-130.49.15c-21.75.12-43.49-.14-65.24-.22s-43.5,0-65.24.09l1.8-1.8.24,36.28.15,36.28.07,18.14c0,6,.08,12.09,0,18.14-.1,12.09-.13,24.18-.28,36.28l-.49,36.28c-.16,12.09-.35,24.18-.4,36.28-.23,24.18-.13,48.37,0,72.55l-1.6-1.61,64.87-.27c21.59-.08,43.14-.15,64.73-.06s43.12.07,64.84.34l16.27.16,16.37.27,16.43.29Z" transform="translate(-335.83 -236.5)"/><path d="M336.36,606.41c.14-27.1.35-54.19.36-81.29l0-20.32,0-20.32-.06-40.64-.06-40.64-.18-40.64c-.21-27.1-.53-54.19-.59-81.29l0-10.16v-1.27l0-1.38c0-.93.1-1.87.21-2.8a31.73,31.73,0,0,1,1.13-5.5,33.1,33.1,0,0,1,23.13-22.51,34.19,34.19,0,0,1,5.52-1c.93-.08,1.86-.14,2.8-.14s1.72,0,2.58,0l20.32.1,81.29.81,40.64.26c13.55.12,27.1.1,40.64-.13l20.32-.28,10.16-.07c1.73,0,3.3,0,5.22,0A32.87,32.87,0,0,1,621,270.11l-.72,162.57c-.09,27.1-.2,54.19-.16,81.29l.22,81.29v11.43l0,1.37c0,.92-.1,1.84-.21,2.76a31.29,31.29,0,0,1-1.12,5.42,32.9,32.9,0,0,1-12.78,17.61,32.13,32.13,0,0,1-10,4.64,33.78,33.78,0,0,1-5.45,1c-.92.08-1.84.13-2.77.14s-1.71,0-2.58,0l-20.32-.08L483.77,639c-13.55-.1-27.1-.06-40.64-.1s-27.1,0-40.64.45l-20.32.54L372,640h-3.84l-1.41,0a32,32,0,0,1-5.61-.77,30.81,30.81,0,0,1-10.31-4.5,31.94,31.94,0,0,1-8-7.76A34.69,34.69,0,0,1,336.36,606.41Zm4.09,0a25.62,25.62,0,0,0,6.68,17.1,29.13,29.13,0,0,0,15.53,8.87,31.29,31.29,0,0,0,4.44.61l1.12,0H372l10.16.16,20.32.61c13.55.52,27.09.59,40.64.58s27.1.08,40.64,0l81.29-.29,20.32,0c.83,0,1.73,0,2.5,0s1.54-.06,2.31-.13a28.29,28.29,0,0,0,4.53-.84,27.52,27.52,0,0,0,19-18.5,25.85,25.85,0,0,0,.95-4.51c.1-.76.16-1.53.19-2.3l0-1.17v-1.27l0-10.16.5-81.29c.13-27.1.11-54.19.12-81.29l-.16-162.57a27.27,27.27,0,0,0-21.32-26.61,29.74,29.74,0,0,0-4.55-.63c-1.46-.06-3.28,0-4.94-.06l-10.16-.11-20.32-.34c-13.55-.28-27.09-.34-40.64-.26l-40.64.13-81.29.54-20.32,0c-.83,0-1.74,0-2.5,0s-1.52.06-2.27.12a27.88,27.88,0,0,0-4.46.83,26.64,26.64,0,0,0-8.18,3.83A27.34,27.34,0,0,0,343.3,262a25.4,25.4,0,0,0-.94,4.44c-.1.75-.16,1.51-.19,2.27l0,1.16v1.27l-.05,10.16c-.16,27.1-.57,54.19-.87,81.29l-.32,40.64-.2,40.64-.2,40.64-.1,20.32,0,20.32C340.28,552.23,340.41,579.32,340.45,606.42Z" transform="translate(-335.83 -236.5)"/><path class="f" d="M459.22,382.59c4.39-7.62,39.36,16.9,42.62,22.39s-38.53,26.69-41.74,24.85S459.22,382.59,459.22,382.59Z" transform="translate(-335.83 -236.5)"/><path class="j" d="M458.72,355.8c35.78-17,83.76,21.1,75.61,63.4s-68.6,54-95,27.65S426.36,371.13,458.72,355.8Z" transform="translate(-335.83 -236.5)"/><path class="f" d="M457.61,353.47A49.92,49.92,0,0,1,468.44,350a52.39,52.39,0,0,1,11.31-.76A59.09,59.09,0,0,1,490.88,351a64.48,64.48,0,0,1,10.49,3.95,68.81,68.81,0,0,1,9.57,5.75,67,67,0,0,1,8.45,7.25,63.83,63.83,0,0,1,7.14,8.55c1.11,1.49,2,3.12,3,4.69s1.8,3.26,2.52,5a54.71,54.71,0,0,1,5.05,21.62A52.79,52.79,0,0,1,533,429.55a22.92,22.92,0,0,1-1.17,2.53l-1.3,2.47c-1,1.56-1.9,3.21-3,4.68a56.19,56.19,0,0,1-7.33,8.44,54,54,0,0,1-19,11.73,65.83,65.83,0,0,1-43.84.37,53.05,53.05,0,0,1-10-4.8,50.16,50.16,0,0,1-8.71-6.92,54.11,54.11,0,0,1-6.82-8.71,53.25,53.25,0,0,1-4.7-10c-.28-.88-.61-1.74-.85-2.63l-.73-2.66c-.39-1.8-.77-3.6-1-5.42a58.36,58.36,0,0,1-.6-11,69.87,69.87,0,0,1,1.29-11A68.68,68.68,0,0,1,428.27,386a62.72,62.72,0,0,1,4.94-10,60.93,60.93,0,0,1,6.6-9A56,56,0,0,1,457.61,353.47Zm2.2,4.65a52.2,52.2,0,0,0-8.7,5.33A59.22,59.22,0,0,0,437.3,378.6a66.11,66.11,0,0,0-4.88,9.15,72.2,72.2,0,0,0-3.45,9.82,65.31,65.31,0,0,0-1.81,10.28,50.4,50.4,0,0,0,2.32,20.68,44.07,44.07,0,0,0,4.5,9.42,45.3,45.3,0,0,0,6.61,8,41.39,41.39,0,0,0,8.37,6.08,49.41,49.41,0,0,0,9.57,4,57.15,57.15,0,0,0,10.16,2,66.29,66.29,0,0,0,10.35.22,69.24,69.24,0,0,0,20.15-4.17c.82-.25,1.6-.62,2.4-.93s1.6-.63,2.36-1l2.34-1.06,2.28-1.18a54,54,0,0,0,8.64-5.57l1-.79,1-.86c.63-.58,1.3-1.13,1.9-1.75a41.81,41.81,0,0,0,3.39-3.89,42.89,42.89,0,0,0,2.91-4.27l1.2-2.29a20.35,20.35,0,0,0,1.08-2.34,42.34,42.34,0,0,0,2.94-9.89,46.41,46.41,0,0,0,.57-5.15,48,48,0,0,0,.06-5.17A52.5,52.5,0,0,0,528.07,388a60.39,60.39,0,0,0-38.48-32.22,54.14,54.14,0,0,0-10.09-1.57,47.38,47.38,0,0,0-10.11.72A44.86,44.86,0,0,0,459.82,358.12Z" transform="translate(-335.83 -236.5)"/></g></svg>