<svg xmlns="http://www.w3.org/2000/svg" xmlns:xlink="http://www.w3.org/1999/xlink" viewBox="0 0 427.91 411.29"><defs><style>.a{fill:none;}.b{clip-path:url(#a);}.c{fill:#fbc24a;}.d{clip-path:url(#b);}.e{fill:#fff754;}.f{fill:#fff;opacity:0.8;}.g{stroke:#000;stroke-linecap:round;stroke-linejoin:round;stroke-width:17.45px;}</style><clipPath id="a" transform="translate(-186.09 -192.44)"><path class="a" d="M508.5,598.34,401.15,539.62a13.3,13.3,0,0,0-12.38-.2L279.54,594.56a13.3,13.3,0,0,1-19.06-14.34L283.15,460a13.3,13.3,0,0,0-3.63-11.83l-86.2-86.84a13.3,13.3,0,0,1,7.74-22.56l121.36-15.59A13.3,13.3,0,0,0,332.56,316l56-108.82a13.3,13.3,0,0,1,23.85.39l52.33,110.6a13.3,13.3,0,0,0,9.89,7.44l120.78,19.59a13.3,13.3,0,0,1,7,22.8l-89,84a13.3,13.3,0,0,0-4,11.71L528,584.64A13.3,13.3,0,0,1,508.5,598.34Z"/></clipPath><clipPath id="b" transform="translate(-186.09 -192.44)"><path class="a" d="M514.5,598.34,407.15,539.62a13.3,13.3,0,0,0-12.38-.2L285.54,594.56a13.3,13.3,0,0,1-19.06-14.34L289.15,460a13.3,13.3,0,0,0-3.63-11.83l-86.2-86.84a13.3,13.3,0,0,1,7.74-22.56l121.36-15.59A13.3,13.3,0,0,0,338.56,316l56-108.82a13.3,13.3,0,0,1,23.85.39l52.33,110.6a13.3,13.3,0,0,0,9.89,7.44l120.78,19.59a13.3,13.3,0,0,1,7,22.8l-89,84a13.3,13.3,0,0,0-4,11.71L534,584.64A13.3,13.3,0,0,1,514.5,598.34Z"/></clipPath></defs><title>my-interests-mascot</title><g class="b"><path class="c" d="M508.5,598.34,401.15,539.62a13.3,13.3,0,0,0-12.38-.2L279.54,594.56a13.3,13.3,0,0,1-19.06-14.34L283.15,460a13.3,13.3,0,0,0-3.63-11.83l-86.2-86.84a13.3,13.3,0,0,1,7.74-22.56l121.36-15.59A13.3,13.3,0,0,0,332.56,316l56-108.82a13.3,13.3,0,0,1,23.85.39l52.33,110.6a13.3,13.3,0,0,0,9.89,7.44l120.78,19.59a13.3,13.3,0,0,1,7,22.8l-89,84a13.3,13.3,0,0,0-4,11.71L528,584.64A13.3,13.3,0,0,1,508.5,598.34Z" transform="translate(-186.09 -192.44)"/><g class="d"><path class="e" d="M514.5,598.34,410.15,522.62a13.3,13.3,0,0,0-12.38-.2l-84.23,33.14a13.3,13.3,0,0,1-19.06-14.34L307.15,455a13.3,13.3,0,0,0-3.63-11.83L199.32,361.3a13.3,13.3,0,0,1,7.74-22.56l121.36-15.59A13.3,13.3,0,0,0,338.56,316l56-108.82a13.3,13.3,0,0,1,23.85.39l52.33,110.6a13.3,13.3,0,0,0,9.89,7.44l120.78,19.59a13.3,13.3,0,0,1,7,22.8l-89,84a13.3,13.3,0,0,0-4,11.71L534,584.64A13.3,13.3,0,0,1,514.5,598.34Z" transform="translate(-186.09 -192.44)"/><path class="f" d="M351.61,334.81l42.7-83a10.15,10.15,0,0,1,18.2.3l39.93,84.4a10.15,10.15,0,0,0,7.55,5.68L565.15,357.1a10.15,10.15,0,0,1,5.34,17.4l-67.93,64.06Z" transform="translate(-186.09 -192.44)"/></g></g><path d="M505.33,600.32c-26.18-14.15-52.27-28.47-78.39-42.73l-19.59-10.7-4.9-2.68-1.22-.67-.48-.25a3.9,3.9,0,0,0-.42-.2,8.81,8.81,0,0,0-1.78-.59,9.16,9.16,0,0,0-3.74,0,9.34,9.34,0,0,0-1.8.58c-.23.1-.69.32-1.1.53l-1.25.61q-10,4.86-20.05,9.8c-6.66,3.32-13.26,6.75-19.85,10.21Q331,574.56,311.28,585.08L291.6,595.62l-4.92,2.64-2.46,1.32c-.49.24-1.16.54-1.74.79l-.91.38c-.31.11-.64.19-1,.29a18.91,18.91,0,0,1-15.5-2.12,18.44,18.44,0,0,1-5.8-5.55,18.59,18.59,0,0,1-3.09-7.57l-.18-1-.06-1c0-.68-.09-1.38,0-2.06.1-1.31.28-2.87.42-3.6l.92-5.5,3.73-22,3.85-22,4-22c2.73-14.63,5.48-29.25,8.41-43.84l.54-2.74.27-1.37c0-.25.08-.43.1-.65a6.24,6.24,0,0,0-.24-2.55,6.11,6.11,0,0,0-1.27-2.26l-3.73-3.89L257.5,433.18C237,411.61,216.43,390.09,195.43,369l-3.93-4a19.8,19.8,0,0,1-4.21-6.51,19.45,19.45,0,0,1-1.17-7.72,20.05,20.05,0,0,1,2.06-7.45,19,19,0,0,1,4.92-6,18.62,18.62,0,0,1,7-3.51l1.9-.4c.35-.07.56-.1.79-.13l.69-.09,2.76-.38,5.53-.76q22.11-3,44.19-6.31l44.17-6.53L322.23,316l1.31-.19c.2,0,.4-.08.6-.14a6.17,6.17,0,0,0,1.13-.46,5.69,5.69,0,0,0,1.84-1.55,5.2,5.2,0,0,0,.63-1l1.19-2.4,2.47-5,19.72-40.06c3.32-6.66,6.6-13.34,10-20l5.09-9.93c1.69-3.32,3.41-6.61,5.36-9.79s4-6.31,5.91-9.51,3.66-6.48,5.31-9.82l.63-1.25.31-.62c.12-.23.17-.36.38-.71A21.3,21.3,0,0,1,386.5,200a21.6,21.6,0,0,1,3.1-3.08,22.83,22.83,0,0,1,3.72-2.32,20.2,20.2,0,0,1,8.38-2.14,21.14,21.14,0,0,1,8.56,1.39,20.88,20.88,0,0,1,7.41,4.85,15.72,15.72,0,0,1,1.46,1.68,13.18,13.18,0,0,1,1.29,1.8q.57.94,1.11,1.9l.67,1.29,5.1,9.93q2.55,5,5.06,10t5,10c3.31,6.67,6.46,13.4,9.58,20.16l9.37,20.26q4.7,10.12,9.31,20.29l4.63,10.15,2.32,5.08,1.16,2.54.29.63.22.46c.07.17.16.32.24.48a5.26,5.26,0,0,0,3.45,2.5l11,2,22,4,43.93,8,44.09,8a18.57,18.57,0,0,1,12.59,8.93,18.92,18.92,0,0,1,1.74,15.17,14.48,14.48,0,0,1-.67,1.86q-.42.89-.88,1.77c-.32.57-.71,1.1-1.08,1.64l-.57.8-.65.72c-.43.46-.9,1-1.31,1.38l-1,.95-2,1.9-8.18,7.6Q564,412.77,532,444l-8,7.79-4,3.9a11,11,0,0,0-1.33,1.43,6.76,6.76,0,0,0-.79,1.32,7.25,7.25,0,0,0-.67,3,6.12,6.12,0,0,0,0,.75,3.12,3.12,0,0,0,0,.37l.07.44.47,2.75,1.89,11c2.5,14.67,5,29.35,7.28,44s4.63,29.4,6.65,44.14q.73,5.53,1.33,11.09c.2,1.85.4,3.7.57,5.56l.13,1.39.07.7,0,.43,0,.5c0,.66.08,1.31,0,2s-.1,1.33-.17,2a18.29,18.29,0,0,1-2.78,7.35,17.74,17.74,0,0,1-5.43,5.32,16.65,16.65,0,0,1-14,1.76,3.29,3.29,0,0,1,1-6.39h.32A10.22,10.22,0,0,0,522,593.6a8.52,8.52,0,0,0,2.52-6.14c0-.27-.05-.54-.07-.8s-.12-.54-.16-.8l-.09-.46-.15-.68-.29-1.37c-.4-1.82-.77-3.65-1.13-5.47q-1.1-5.48-2.08-11c-2.53-14.67-4.79-29.37-7-44.09s-4.31-29.45-6.36-44.19l-1.52-11.06-.38-2.76-.11-.94c0-.34-.06-.68-.08-1a18.2,18.2,0,0,1,0-2,19.29,19.29,0,0,1,2.12-7.77,18.66,18.66,0,0,1,2.22-3.37,23.38,23.38,0,0,1,2.53-2.59l4.13-3.76,8.25-7.52q33-30.09,65.2-61l8.06-7.72,2-1.93,1-1,.59-.66.3-.31.22-.35c.14-.24.33-.45.45-.69s.22-.5.34-.74a4.56,4.56,0,0,0,.25-.77,7.94,7.94,0,0,0-.93-6.32,7.31,7.31,0,0,0-5.17-3.42l-.2-.05-.33-.05-.69-.1-1.38-.21-2.76-.41-5.52-.82-11-1.58-22.1-3.16-44.2-6.31-22.1-3.15-11.06-1.58a21.22,21.22,0,0,1-15.79-11.36l-.7-1.42-1.23-2.51-2.46-5-4.92-10q-4.93-10-9.78-20.06l-9.73-20.09c-3.24-6.7-6.45-13.41-9.51-20.19q-2.33-5.07-4.58-10.18t-4.49-10.22l-4.45-10.24-.54-1.23a4.6,4.6,0,0,1-.26-.53,1.65,1.65,0,0,0-.3-.49c-.12-.14-.17-.36-.32-.46a5.26,5.26,0,0,0-1.75-1.37,5.16,5.16,0,0,0-2.34-.53,5.22,5.22,0,0,0-2.38.46,6,6,0,0,0-1,.56,7,7,0,0,0-.85.84,6.47,6.47,0,0,0-.74,1,4.4,4.4,0,0,0-.29.51l-.32.62-.65,1.24c-1.75,3.28-3.43,6.6-4.9,10s-2.81,6.92-4.3,10.34-3.13,6.76-4.85,10.06l-5.11,9.92c-3.41,6.61-6.94,13.16-10.43,19.74L345.19,312.3l-2.63,4.92-1.37,2.55a20.33,20.33,0,0,1-2.49,3.6,20.73,20.73,0,0,1-6.89,5.26,20.61,20.61,0,0,1-6.24,1.83l-1.46.17-22.18,2.48L257.55,338q-22.19,2.45-44.35,5.07l-5.54.66-2.77.33-.69.08a4.57,4.57,0,0,0-.59.09l-.83.16a3.83,3.83,0,0,0-.79.24,3,3,0,0,0-.76.3c-.24.13-.48.25-.72.36s-.43.33-.65.48a8.18,8.18,0,0,0-2.09,2.53,9.4,9.4,0,0,0-.92,3.22,8.81,8.81,0,0,0,.47,3.24,9.2,9.2,0,0,0,1.79,2.81l3.93,3.94c20.94,21.15,42.31,41.86,63.72,62.54l16,15.54,2,1.95,1,1,.5.49.25.25.37.38a20.36,20.36,0,0,1,5.61,15.65c0,.71-.16,1.44-.27,2.11l-.25,1.37-.49,2.75c-2.58,14.65-5.34,29.28-8.13,43.89l-4.29,21.9-4.42,21.88L270.1,575,269,580.46c-.26,1.09-.23,1.39-.35,1.92,0,.25,0,.49,0,.73l0,.37.06.35a6.17,6.17,0,0,0,.93,2.73,8.74,8.74,0,0,0,.89,1.23,9.12,9.12,0,0,0,1.18,1,6.88,6.88,0,0,0,2.81,1.22,6.67,6.67,0,0,0,3.05-.06c.13,0,.26,0,.39-.07l.38-.15c.27-.11.47-.16.82-.3l2.52-1.2,5-2.39,20.17-9.58Q327,566.63,347,556.87c6.7-3.24,13.38-6.52,20-9.9s13.21-6.85,19.8-10.31l1.24-.65c.41-.21.79-.41,1.4-.7A17.54,17.54,0,0,1,400.29,534a17.49,17.49,0,0,1,3.53,1.1c.29.12.57.25.84.39s.59.29.76.39l1.22.67,4.89,2.68L431.12,550c26.1,14.3,52.22,28.55,78.26,43a4.22,4.22,0,0,1-4,7.4Z" transform="translate(-186.09 -192.44)"/><path class="g" d="M422.93,433c0,8.88-10.06,16.08-22.46,16.08S378,441.93,378,433Z" transform="translate(-186.09 -192.44)"/><path d="M440.74,392a28.16,28.16,0,0,1,11-16.18,33.25,33.25,0,0,1,19-6.47,31.54,31.54,0,0,1,10.3,1.51,29.47,29.47,0,0,1,9.19,4.93,29,29,0,0,1,10.26,16.49,4.33,4.33,0,0,1-7.57,3.67l-.17-.21c-3.22-3.9-6.49-7-10.13-8.93A23.75,23.75,0,0,0,471,384a28.2,28.2,0,0,0-12.12,3,31,31,0,0,0-10.36,8.39l-.19.24a4.32,4.32,0,0,1-7.57-3.65Z" transform="translate(-186.09 -192.44)"/><path d="M299.51,392a28.16,28.16,0,0,1,11-16.18,33.25,33.25,0,0,1,19-6.47,31.54,31.54,0,0,1,10.3,1.51A29.47,29.47,0,0,1,349,375.8a29,29,0,0,1,10.26,16.49,4.33,4.33,0,0,1-7.57,3.67l-.17-.21c-3.22-3.9-6.49-7-10.13-8.93a23.76,23.76,0,0,0-11.63-2.8,28.2,28.2,0,0,0-12.12,3,31,31,0,0,0-10.36,8.39l-.19.24a4.32,4.32,0,0,1-7.57-3.65Z" transform="translate(-186.09 -192.44)"/></svg>